<svg xmlns="http://www.w3.org/2000/svg" xmlns:xlink="http://www.w3.org/1999/xlink" fill="none" version="1.1" width="29.01736068725586" height="21.226465225219727" viewBox="0 0 29.01736068725586 21.226465225219727"><g><path d="M12.8162,0.19894C13.0905,-0.0194609,13.4655,-0.0616613,13.7815,0.0903292C14.0974,0.24232,14.2985,0.561694,14.2991,0.912299L14.2991,20.3142C14.2985,20.6648,14.0974,20.9841,13.7815,21.1361C13.4655,21.2881,13.0905,21.2459,12.8162,21.0275L6.13793,15.6849L0.91219,15.6849C0.408157,15.6841,1.24392e-7,15.2752,0,14.7712L0,6.45374C0,5.94983,0.408285,5.54155,0.91219,5.54155L6.13641,5.54155L12.8162,0.19894ZM19.54,6.01662C19.8966,5.66116,20.4735,5.66116,20.8301,6.01662L24.145,9.32994L27.4598,6.01662C27.7715,5.70513,28.261,5.66045,28.6239,5.91037L28.7499,6.01662C29.1064,6.37338,29.1064,6.95149,28.7499,7.30825L25.4366,10.6216L28.7499,13.9364C29.0614,14.2481,29.1061,14.7377,28.8562,15.1006L28.7499,15.2281C28.3933,15.5835,27.8164,15.5835,27.4598,15.2281L24.145,11.9117L20.8316,15.2281C20.5197,15.5404,20.0292,15.5851,19.666,15.3343L19.54,15.2281C19.1835,14.8713,19.1835,14.2932,19.54,13.9364L22.8548,10.6216L19.54,7.30825C19.2285,6.99659,19.1838,6.50701,19.4337,6.14411L19.54,6.01662Z" fill="#2D3D32" fill-opacity="1" style="mix-blend-mode:passthrough"/></g></svg>