<svg xmlns="http://www.w3.org/2000/svg" xmlns:xlink="http://www.w3.org/1999/xlink" fill="none" version="1.1" width="29.542200088500977" height="21.42357063293457" viewBox="0 0 29.542200088500977 21.42357063293457"><g><path d="M25.2165,0.238939C30.9841,6.00653,30.9841,15.3576,25.2165,21.1267C24.865,21.5109,24.264,21.524,23.896,21.1556C23.528,20.7872,23.5418,20.1862,23.9264,19.8351C28.9791,14.7796,28.9791,6.58602,23.9264,1.53058C23.5965,1.17006,23.6086,0.613764,23.954,0.268C24.2993,-0.0777631,24.8556,-0.0905676,25.2165,0.238939ZM12.8162,0.269294C13.0905,0.0508944,13.4655,0.00869502,13.7815,0.160685C14.0974,0.312676,14.2985,0.63205,14.2991,0.982654L14.2991,20.3815C14.2985,20.7321,14.0974,21.0515,13.7815,21.2035C13.4655,21.3554,13.0905,21.3132,12.8162,21.0948L6.13793,15.7522L0.91219,15.7522C0.408157,15.7514,1.24392e-7,15.3426,0,14.8385L0,6.52409C0,6.02019,0.408285,5.6119,0.91219,5.6119L6.13641,5.6119L12.8162,0.269294ZM20.3247,5.13077C23.3861,8.1932,23.3861,13.1573,20.3247,16.2197C19.9642,16.5496,19.4079,16.5375,19.0621,16.1921C18.7164,15.8468,18.7035,15.2905,19.033,14.9296C21.3817,12.5802,21.3817,8.77183,19.033,6.4224C18.6415,6.07278,18.6244,5.46595,18.9956,5.09479C19.3667,4.72364,19.9735,4.74078,20.3232,5.13228L20.3247,5.13077Z" fill="#2D3D32" fill-opacity="1" style="mix-blend-mode:passthrough"/></g></svg>